<?xml version="1.0" encoding="UTF-8" standalone="no"?>
<svg
   id="Capa_1"
   data-name="Capa 1"
   viewBox="0 0 857.8 156.24"
   version="1.1"
   sodipodi:docname="logodeptnegro.svg"
   inkscape:version="1.3.2 (091e20e, 2023-11-25, custom)"
   xmlns:inkscape="http://www.inkscape.org/namespaces/inkscape"
   xmlns:sodipodi="http://sodipodi.sourceforge.net/DTD/sodipodi-0.dtd"
   xmlns="http://www.w3.org/2000/svg"
   xmlns:svg="http://www.w3.org/2000/svg"
   fill="#E9E8E8">
  <sodipodi:namedview
     id="namedview33"
     pagecolor="#ffffff"
     bordercolor="#000000"
     borderopacity="0.25"
     inkscape:showpageshadow="2"
     inkscape:pageopacity="0.0"
     inkscape:pagecheckerboard="0"
     inkscape:deskcolor="#d1d1d1"
     showguides="true"
     inkscape:zoom="1.0675021"
     inkscape:cx="477.28244"
     inkscape:cy="93.208248"
     inkscape:window-width="1920"
     inkscape:window-height="1009"
     inkscape:window-x="-8"
     inkscape:window-y="-8"
     inkscape:window-maximized="1"
     inkscape:current-layer="Capa_1">
    <sodipodi:guide
       position="8.4308969,9.1676939"
       orientation="1,0"
       id="guide33"
       inkscape:locked="false" />
  </sodipodi:namedview>
  <defs
     id="defs1">
    <style
       id="style1">
      .cls-1 {
        fill-rule: evenodd;
      }
    </style>
    <rect
       x="-544.00092"
       y="778.72217"
       width="2446.8984"
       height="267.31982"
       id="rect1" />
  </defs>
  <g
     id="g7"
     inkscape:export-filename="logodetpnegro.png"
     inkscape:export-xdpi="96"
     inkscape:export-ydpi="96">
    <path
       d="M514.82,1.62h8.09V22.63c0,6.86,2.61,8.62,7.82,8.62s7.82-1.75,7.82-8.62V1.62h8.03V23.75c0,9.2-5.27,14.1-15.85,14.1s-15.91-4.84-15.91-14.1V1.62Z"
       id="path1" />
    <path
       d="M579.88,20.67v16.33h-7.87v-15.11c0-4.26-1.81-5.96-5.05-5.96-4.2,0-6.54,2.66-6.54,8.99v12.08h-7.87V10.4h7.87v5.21c1.7-3.62,4.73-6.06,9.58-6.06,6.97,0,9.9,4.15,9.9,11.12Z"
       id="path2" />
    <path
       d="M585.41,1.62h8.56V6.89h-8.56V1.62Zm.37,8.78h7.87v26.6h-7.87V10.4Z"
       id="path3" />
    <path
       d="M626.91,10.4l-9.26,26.6h-11.07l-9.26-26.6h8.03l7.02,20.48,7.02-20.48h7.5Z"
       id="path4" />
    <path
       d="M648.51,28.96h7.55c-.74,4.26-4.15,8.89-13.72,8.89-10.37,0-14.31-6.7-14.31-14.2s4.47-14.1,14.31-14.1,13.78,6.54,13.78,14.04c0,.8,0,1.54-.11,2.13h-20.27c.48,5.05,2.98,6.7,6.76,6.7,3.46,0,5.27-1.49,6.01-3.46Zm-12.71-8.03h12.82c-.27-4.04-2.23-6.06-6.17-6.06s-6.01,1.54-6.65,6.06Z"
       id="path5" />
    <path
       d="M678.35,9.97v7.66h-2.61c-5.27,0-7.08,2.87-7.08,8.88v10.48h-7.87V10.4h7.66v5.69c1.28-3.78,3.67-6.12,8.14-6.12h1.76Z"
       id="path6" />
    <path
       d="M687.66,28.33c.21,2.55,2.13,4.58,6.12,4.58,3.56,0,4.79-1.22,4.79-3.09,0-1.6-.74-2.77-3.72-3.14l-5.96-.75c-5-.64-7.71-3.3-7.71-7.77,0-5.9,5-8.67,12.08-8.67s12.02,2.82,12.5,8.67h-7.29c-.27-2.18-1.92-3.72-5.21-3.72s-4.79,1.28-4.79,2.98c0,1.33,.69,2.39,3.35,2.71l5.59,.64c6.33,.8,8.72,3.51,8.72,8.25,0,5.21-3.3,8.83-12.45,8.83s-13.03-4.47-13.19-9.52h7.18Z"
       id="path7" />
  </g>
  <path
     d="M710.6,1.62h8.56V6.89h-8.56V1.62Zm.37,8.78h7.87v26.6h-7.87V10.4Z"
     id="path8" />
  <path
     d="M727.57,27.42v-11.06h-4.84v-3.78l5.48-2.23,3.24-6.28h3.99v6.33h7.66v5.96h-7.66v14.36h6.92v6.28h-5c-7.55,0-9.79-3.25-9.79-9.58Z"
     id="path9" />
  <path
     d="M746.51,29.92c0-4.25,1.86-7.02,8.72-8.19l6.28-1.07c2.45-.42,3.3-1.12,3.3-2.66,0-1.86-1.06-3.09-4.63-3.09s-5.32,1.44-5.43,4.15h-7.71c.21-5.69,4.89-9.58,12.98-9.58s12.02,3.46,12.02,9.1v11.49c0,2.5,.16,4.63,.43,6.92h-6.86c-.27-1.76-.43-3.51-.43-5.69-1.22,3.67-4.42,6.38-9.84,6.38s-8.83-2.98-8.83-7.77Zm18.3-5.59v-1.17c-1.38,.96-2.71,1.33-4.36,1.7l-2.23,.53c-2.82,.69-3.94,1.7-3.94,3.72,0,2.13,1.6,3.19,3.72,3.19,4.15,0,6.81-3.03,6.81-7.98Z"
     id="path10" />
  <path
     d="M779.6,27.42v-11.06h-4.84v-3.78l5.48-2.23,3.24-6.28h3.99v6.33h7.66v5.96h-7.66v14.36h6.92v6.28h-5c-7.55,0-9.79-3.25-9.79-9.58Z"
     id="path11" />
  <path
     d="M540.03,87.11h-15.85l-2.55,7.24h-8.14l12.45-35.38h12.34l12.45,35.38h-8.14l-2.55-7.24Zm-2.18-6.22l-5.75-16.33-5.74,16.33h11.49Z"
     id="path12" />
  <g
     id="g14">
    <path
       d="M581.1,67.75v26.6h-7.87v-5.11c-1.65,3.57-4.63,5.96-9.42,5.96-6.97,0-10.05-4.2-10.05-11.17v-16.28h7.87v15.11c0,4.2,1.86,5.91,5.21,5.91,3.94,0,6.38-2.93,6.38-8.94v-12.08h7.87Z"
       id="path13" />
    <path
       d="M589.88,84.77v-11.06h-4.84v-3.78l5.48-2.23,3.24-6.28h3.99v6.33h7.66v5.96h-7.66v14.36h6.92v6.28h-5c-7.55,0-9.79-3.25-9.79-9.58Z"
       id="path14" />
  </g>
  <g
     id="g17">
    <path
       d="M608.18,81c0-7.34,4.15-14.1,14.74-14.1s14.74,6.81,14.74,14.1-4.1,14.2-14.74,14.2-14.74-6.76-14.74-14.2Zm8.83-22.93l13.46,4.63-.64,2.07-14.36-1.7,1.54-5Zm5.91,30.96c4.84,0,6.86-2.07,6.86-7.98s-2.02-7.98-6.86-7.98-6.81,2.08-6.81,7.98,2.02,7.98,6.81,7.98Z"
       id="path15" />
    <path
       d="M669.79,78.02v16.33h-7.87v-15.11c0-4.26-1.81-5.96-5.05-5.96-4.2,0-6.54,2.66-6.54,8.99v12.08h-7.87v-26.6h7.87v5.21c1.7-3.62,4.73-6.06,9.58-6.06,6.97,0,9.9,4.15,9.9,11.12Z"
       id="path16" />
    <path
       d="M674.21,81c0-7.34,4.15-14.1,14.74-14.1s14.74,6.81,14.74,14.1-4.1,14.2-14.74,14.2-14.74-6.76-14.74-14.2Zm14.74,8.03c4.84,0,6.86-2.07,6.86-7.98s-2.02-7.98-6.86-7.98-6.81,2.08-6.81,7.98,2.02,7.98,6.81,7.98Z"
       id="path17" />
  </g>
  <path
     d="M753.37,78.02v16.33h-7.87v-15.21c0-3.99-1.6-5.85-4.79-5.85-3.99,0-6.01,2.66-6.01,8.99v12.08h-7.71v-15.21c0-3.99-1.6-5.85-4.79-5.85-3.99,0-6.01,2.66-6.01,8.99v12.08h-7.87v-26.6h7.87v4.84c1.6-3.4,4.47-5.69,9.1-5.69s7.61,2.23,8.78,6.17c1.6-3.67,4.52-6.17,9.52-6.17,6.76,0,9.79,4.15,9.79,11.12Z"
     id="path18" />
  <path
     d="M757.95,87.27c0-4.25,1.86-7.02,8.72-8.19l6.28-1.07c2.45-.42,3.3-1.12,3.3-2.66,0-1.86-1.06-3.09-4.63-3.09s-5.32,1.44-5.43,4.15h-7.71c.21-5.69,4.89-9.58,12.98-9.58s12.02,3.46,12.02,9.1v11.49c0,2.5,.16,4.63,.43,6.92h-6.86c-.27-1.76-.43-3.51-.43-5.69-1.22,3.67-4.42,6.38-9.84,6.38s-8.83-2.98-8.83-7.77Zm18.3-5.59v-1.17c-1.38,.96-2.71,1.33-4.36,1.7l-2.23,.53c-2.82,.69-3.94,1.7-3.94,3.72,0,2.13,1.6,3.19,3.72,3.19,4.15,0,6.81-3.03,6.81-7.98Z"
     id="path19" />
  <path
     d="M541.36,114.46v37.24h-7.87v-3.94c-1.86,3.03-4.95,4.79-9.52,4.79-8.67,0-12.24-6.49-12.24-14.2s3.56-14.1,12.24-14.1c4.58,0,7.66,1.81,9.52,4.84v-14.63h7.87Zm-7.87,23.94c0-5.43-2.13-7.98-7.08-7.98s-6.81,2.45-6.81,7.98,1.81,7.98,6.81,7.98,7.08-2.55,7.08-7.98Z"
     id="path20" />
  <path
     d="M566.21,143.67h7.55c-.74,4.26-4.15,8.89-13.72,8.89-10.37,0-14.31-6.7-14.31-14.2s4.47-14.1,14.31-14.1,13.78,6.54,13.78,14.04c0,.8,0,1.54-.11,2.13h-20.27c.48,5.05,2.98,6.7,6.76,6.7,3.46,0,5.27-1.49,6.01-3.46Zm-12.71-8.03h12.82c-.27-4.04-2.23-6.06-6.17-6.06s-6.01,1.54-6.65,6.06Z"
     id="path21" />
  <path
     d="M621.86,142.07c0,5.96-3.88,9.63-11.44,9.63h-19.36v-35.38h19.74c7.55,0,10.59,3.94,10.59,8.72,0,5.21-3.24,7.55-7.29,8.4,4.42,.69,7.77,2.98,7.77,8.62Zm-22.72-19.63v8.46h8.99c3.51,0,4.79-1.7,4.79-4.26,0-2.71-1.17-4.2-4.52-4.2h-9.26Zm14.31,18.51c0-2.82-1.44-4.63-5.32-4.63h-8.99v9.2h9.47c3.62,0,4.84-1.97,4.84-4.57Z"
     id="path22" />
  <path
     d="M626.59,144.62c0-4.25,1.86-7.02,8.72-8.19l6.28-1.07c2.45-.42,3.3-1.12,3.3-2.66,0-1.86-1.06-3.09-4.63-3.09s-5.32,1.44-5.43,4.15h-7.71c.21-5.69,4.89-9.58,12.98-9.58s12.02,3.46,12.02,9.1v11.49c0,2.5,.16,4.63,.43,6.92h-6.86c-.27-1.76-.43-3.51-.43-5.69-1.22,3.67-4.42,6.38-9.84,6.38s-8.83-2.98-8.83-7.77Zm18.3-5.59v-1.17c-1.38,.96-2.71,1.33-4.36,1.7l-2.23,.53c-2.82,.69-3.94,1.7-3.94,3.72,0,2.13,1.6,3.19,3.72,3.19,4.15,0,6.81-3.03,6.81-7.98Z"
     id="path23" />
  <g
     id="g30">
    <path
       d="M676.55,124.67v7.66h-2.61c-5.27,0-7.08,2.87-7.08,8.88v10.48h-7.87v-26.6h7.66v5.69c1.28-3.78,3.67-6.12,8.14-6.12h1.76Z"
       id="path24" />
    <path
       d="M693.41,124.25c9.2,0,13.72,5.11,13.94,11.65h-7.66c-.27-3.3-2.08-5.48-6.12-5.48-4.26,0-6.81,2.02-6.81,7.98s2.45,7.98,6.7,7.98,6.06-2.45,6.38-5.64h7.66c-.16,6.22-4.58,11.81-13.94,11.81-10.37,0-14.74-6.7-14.74-14.15s4.26-14.15,14.58-14.15Z"
       id="path25" />
    <path
       d="M731.4,143.67h7.55c-.74,4.26-4.15,8.89-13.72,8.89-10.37,0-14.31-6.7-14.31-14.2s4.47-14.1,14.31-14.1,13.78,6.54,13.78,14.04c0,.8,0,1.54-.11,2.13h-20.27c.48,5.05,2.98,6.7,6.76,6.7,3.46,0,5.27-1.49,6.01-3.46Zm-12.71-8.03h12.82c-.27-4.04-2.23-6.06-6.17-6.06s-6.01,1.54-6.65,6.06Z"
       id="path26" />
    <path
       d="M743.58,114.46h7.87v37.24h-7.87v-37.24Z"
       id="path27" />
    <path
       d="M756.24,138.35c0-7.34,4.15-14.1,14.74-14.1s14.74,6.81,14.74,14.1-4.1,14.2-14.74,14.2-14.74-6.76-14.74-14.2Zm14.74,8.03c4.84,0,6.86-2.07,6.86-7.98s-2.02-7.98-6.86-7.98-6.81,2.08-6.81,7.98,2.02,7.98,6.81,7.98Z"
       id="path28" />
    <path
       d="M817.84,135.37v16.33h-7.87v-15.11c0-4.26-1.81-5.96-5.05-5.96-4.2,0-6.54,2.66-6.54,8.99v12.08h-7.87v-26.6h7.87v5.21c1.7-3.62,4.73-6.06,9.58-6.06,6.97,0,9.9,4.15,9.9,11.12Z"
       id="path29" />
    <path
       d="M822.95,144.62c0-4.25,1.86-7.02,8.72-8.19l6.28-1.07c2.45-.42,3.3-1.12,3.3-2.66,0-1.86-1.06-3.09-4.63-3.09s-5.32,1.44-5.43,4.15h-7.71c.21-5.69,4.89-9.58,12.98-9.58s12.02,3.46,12.02,9.1v11.49c0,2.5,.16,4.63,.43,6.92h-6.86c-.27-1.76-.43-3.51-.43-5.69-1.22,3.67-4.42,6.38-9.84,6.38s-8.83-2.98-8.83-7.77Zm18.3-5.59v-1.17c-1.38,.96-2.71,1.33-4.36,1.7l-2.23,.53c-2.82,.69-3.94,1.7-3.94,3.72,0,2.13,1.6,3.19,3.72,3.19,4.15,0,6.81-3.03,6.81-7.98Z"
       id="path30" />
  </g>
  <g
     id="g33">
    <path
       d="M8.9,1.71H43.2V90.83c0,29.11,11.06,36.55,33.17,36.55s33.17-7.45,33.17-36.55V1.71h34.07V95.57c0,39.04-22.34,59.79-67.24,59.79S8.9,134.83,8.9,95.57V1.71Z"
       id="path31" />
    <path
       d="M465.72,110.91c0,25.27-16.47,40.84-48.51,40.84h-82.13V1.71h83.71c32.04,0,44.9,16.7,44.9,37,0,22.11-13.77,32.04-30.91,35.65,18.73,2.93,32.94,12.64,32.94,36.55M369.38,27.65V63.53h38.13c14.89,0,20.31-7.22,20.31-18.05,0-11.51-4.96-17.83-19.18-17.83h-39.26Zm60.69,78.52c0-11.96-6.09-19.63-22.56-19.63h-38.13v39.03h40.16c15.34,0,20.53-8.35,20.53-19.4"
       id="path32" />
    <path
       class="cls-1"
       d="M260.72,1.69h-45.52l-59.76,150.06h32.32c.48-1.29,1.16-3.11,1.65-4.3,2.74-6.6,6.91-12.12,11.99-16.9,8.32-7.83,18.48-11.16,28.99-12.02,7.12-.58,15.46-.73,22.62-.75h22.04l13.08,33.96h32.34L260.72,1.69Zm-10.39,89.8c-.9,0-1.76,0-2.54,.02-17.78,.16-32.39,4.35-46.51,24.94L237.97,25.39l26.62,66.11c-.41,0-14.25,0-14.25,0"
       id="path33" />
  </g>
  <text
     xml:space="preserve"
     transform="matrix(0.3543358,0,0,0.3543358,200.03712,-117.63596)"
     id="text1"
      style="font-size:133.333px;white-space:pre;shape-inside:url(#rect1);display:inline;fill:#E9E8E8;fill-opacity:1"><tspan
       x="-544"
       y="900.36639"
       id="tspan8"><tspan
         dx="0 0 0 0 0 0 0 0 0 0 0 0 0 0 0 0 0.00010681152 0 0 0 0 0 0 0 0 0 0 0 0 0 0 0.00012969971 -0.00015258789 0.00011444092"
         style="font-weight:800;font-family:'PP Telegraf';-inkscape-font-specification:'PP Telegraf Ultra-Bold'"
         id="tspan3">Departament de Filologia Espanyola</tspan><tspan
         style="font-family:'PP Telegraf';-inkscape-font-specification:'PP Telegraf'"
         id="tspan4"> </tspan></tspan><tspan
       x="-544"
       y="1167.6867"
       id="tspan10"><tspan
         dx="0 81.066437 68.399887 80.399887 72.533234 75.466461 69.999756 78.666504 28.666626"
         style="font-family:'PP Telegraf';-inkscape-font-specification:'PP Telegraf'"
         id="tspan9">Espanyola</tspan></tspan></text>
</svg>
